<?xml version="1.0" encoding="UTF-8" standalone="no"?>
<svg
   xmlns:dc="http://purl.org/dc/elements/1.1/"
   xmlns:cc="http://creativecommons.org/ns#"
   xmlns:rdf="http://www.w3.org/1999/02/22-rdf-syntax-ns#"
   xmlns:svg="http://www.w3.org/2000/svg"
   xmlns="http://www.w3.org/2000/svg"
   xmlns:sodipodi="http://sodipodi.sourceforge.net/DTD/sodipodi-0.dtd"
   xmlns:inkscape="http://www.inkscape.org/namespaces/inkscape"
   viewBox="0 0 1024 1024"
   version="1.1"
   width="1024"
   height="1024"
   id="svg13"
   sodipodi:docname="whatsstat.svg"
   inkscape:version="0.92.4 5da689c313, 2019-01-14"
   inkscape:export-filename="/home/stefan/Coding/Wordcloud/WhatsStat/icons/64.png"
   inkscape:export-xdpi="64"
   inkscape:export-ydpi="64">
  <metadata
     id="metadata19">
    <rdf:RDF>
      <cc:Work
         rdf:about="">
        <dc:format>image/svg+xml</dc:format>
        <dc:type
           rdf:resource="http://purl.org/dc/dcmitype/StillImage" />
        <dc:title></dc:title>
      </cc:Work>
    </rdf:RDF>
  </metadata>
  <defs
     id="defs17" />
  <sodipodi:namedview
     pagecolor="#ffffff"
     bordercolor="#666666"
     borderopacity="1"
     objecttolerance="10"
     gridtolerance="10"
     guidetolerance="10"
     inkscape:pageopacity="0"
     inkscape:pageshadow="2"
     inkscape:window-width="1920"
     inkscape:window-height="1017"
     id="namedview15"
     showgrid="false"
     inkscape:zoom="0.79101562"
     inkscape:cx="512.00001"
     inkscape:cy="512"
     inkscape:window-x="2048"
     inkscape:window-y="0"
     inkscape:window-maximized="1"
     inkscape:current-layer="svg13"
     showguides="true" />
  <g
     id="g3787"
     transform="matrix(12.757678,0,0,12.703237,1289.187,256.83669)"
     style="stroke-width:0.07855196">
    <g
       style="stroke-width:0.03927598"
       transform="matrix(2,0,0,2,-108.78647,-28.218208)"
       id="surface1">
      <path
         inkscape:connector-curvature="0"
         id="path2"
         d="M 4.867188,43.304688 7.5625,33.46875 C 5.898438,30.589844 5.027344,27.324219 5.027344,23.980469 5.03125,13.515625 13.546875,5 24.015625,5 c 5.078125,0.00391 9.84375,1.980469 13.429688,5.566406 3.582031,3.585938 5.558593,8.355469 5.554687,13.425782 -0.0039,10.46875 -8.523437,18.980468 -18.984375,18.980468 -0.0039,0 0,0 0,0 h -0.0078 c -3.179688,0 -6.300782,-0.796875 -9.074219,-2.308593 z"
         style="fill:#ffffff;stroke-width:0.01963799" />
      <path
         inkscape:connector-curvature="0"
         id="path4"
         d="m 4.867188,43.804688 c -0.132813,0 -0.257813,-0.05469 -0.355469,-0.148438 -0.125,-0.128906 -0.171875,-0.3125 -0.125,-0.484375 L 7.023438,33.535156 C 5.390625,30.628906 4.527344,27.328125 4.527344,23.980469 4.53125,13.238281 13.273438,4.5 24.015625,4.5 c 5.207031,0.00391 10.101563,2.03125 13.78125,5.714844 3.679688,3.679687 5.707031,8.574219 5.703125,13.777344 -0.0039,10.742187 -8.746094,19.480468 -19.484375,19.480468 -3.191406,0 -6.34375,-0.785156 -9.144531,-2.277343 l -9.875,2.589843 c -0.042969,0.01172 -0.085938,0.01953 -0.128906,0.01953 z"
         style="fill:#ffffff;stroke-width:0.01963799" />
      <path
         inkscape:connector-curvature="0"
         id="path6"
         d="m 24.015625,5 c 5.078125,0.00391 9.84375,1.980469 13.429688,5.566406 3.582031,3.585938 5.558593,8.355469 5.554687,13.425782 -0.0039,10.46875 -8.523437,18.980468 -18.984375,18.980468 h -0.0078 c -3.179688,0 -6.300782,-0.796875 -9.074219,-2.308593 L 4.867188,43.304688 7.5625,33.46875 C 5.898438,30.589844 5.027344,27.324219 5.027344,23.980469 5.03125,13.515625 13.546875,5 24.015625,5 m 0,37.972656 v 0 m 0,0 v 0 M 24.015625,4 C 12.996094,4 4.03125,12.960938 4.027344,23.980469 c 0,3.367187 0.847656,6.683594 2.460937,9.621094 l -2.585937,9.4375 c -0.09375,0.347656 0.00391,0.714843 0.253906,0.96875 0.191406,0.191406 0.449219,0.296875 0.710938,0.296875 0.085937,0 0.171875,-0.01172 0.253906,-0.03516 l 9.6875,-2.539062 c 2.828125,1.46875 6,2.242187 9.199219,2.246094 C 35.03125,43.976563 43.996094,35.011719 44,23.996094 44.003906,18.65625 41.925781,13.636719 38.152344,9.859375 34.378906,6.082031 29.355469,4.003906 24.015625,4 Z"
         style="fill:#cfd8dc;stroke-width:0.01963799" />
      <path
         inkscape:connector-curvature="0"
         id="path8"
         d="m 24.019531,8.2070312 c -8.703125,0 -15.7851562,7.0742188 -15.7890622,15.7734378 0,2.980469 0.8359374,5.882812 2.4140622,8.394531 l 0.375,0.597656 -1.5937498,5.820313 5.9726568,-1.566407 0.578124,0.34375 c 2.421876,1.4375 5.199219,2.199219 8.03125,2.199219 h 0.0078 c 8.695313,0 15.773438,-7.078125 15.777344,-15.777343 C 39.796875,19.777344 38.15625,15.8125 35.175781,12.832031 32.195313,9.8515632 28.234375,8.2070313 24.019531,8.2070312 Z m -1.603515,6.3906248 h 3 c 0.554,0 1,0.446 1,1 v 16 c 0,0.554 -0.446,1 -1,1 h -3 c -0.554,0 -1,-0.446 -1,-1 v -16 c 0,-0.554 0.446,-1 1,-1 z m 7,4 h 3 c 0.554,0 1,0.446 1,1 v 12 c 0,0.554 -0.446,1 -1,1 h -3 c -0.554,0 -1,-0.446 -1,-1 v -12 c 0,-0.554 0.446,-1 1,-1 z m -14,4 h 3 c 0.554,0 1,0.446 1,1 v 8 c 0,0.554 -0.446,1 -1,1 h -3 c -0.554,0 -1,-0.446 -1,-1 v -8 c 0,-0.554 0.446,-1 1,-1 z"
         style="fill:#40c351;stroke-width:0.01963799" />
    </g>
  </g>
</svg>
